<svg width="198" height="133" viewBox="0 0 198 133" fill="none" xmlns="http://www.w3.org/2000/svg">
<g id="Group">
<g id="Group_2">
<path id="Vector" d="M153.968 131.565L147.53 128.218L196.241 56.0557L204.285 57.3637L203.859 58.0101L153.975 131.572L153.968 131.565ZM149.014 127.861L153.625 130.257L202.573 58.1242L196.721 57.1736L149.014 127.861Z" fill="#D2B48D"/>
<path id="Vector_2" d="M154.089 132.044L146.989 128.355L196.066 55.6526L204.909 57.0899L204.163 58.2154L154.089 132.051V132.044ZM148.062 128.082L153.838 131.085L203.645 57.6299L196.408 56.4511L148.062 128.074V128.082ZM153.739 130.736L148.466 127.998L196.538 56.7629L203.196 57.8504L153.739 130.736ZM149.546 127.724L153.496 129.777L201.933 58.398L196.888 57.5766L149.546 127.724Z" fill="#D2B48D"/>
</g>
<g id="Group_3">
<path id="Vector_3" d="M203.851 58.0557L196.317 57.0822L44.2778 1.27754L44.7497 0.494237L52.0019 0.372559L52.1237 0.418188L204.437 57.1963L203.851 58.0557ZM196.621 56.1012L199.643 56.4891L51.865 1.38401L47.7556 1.49048L196.621 56.1012Z" fill="#D2B48D"/>
<path id="Vector_4" d="M204.026 58.4512L196.188 57.4321L43.73 1.46774L44.5366 0.129283L52.0629 0L52.2455 0.068444L205 57.0139L204.026 58.4512ZM196.401 56.7249L203.661 57.6603L203.851 57.3789L51.9335 0.745279L44.9552 0.866958L44.8258 1.0875L196.401 56.7249ZM202.77 57.2572L196.492 56.4435L45.7999 1.16355L51.9259 1.01145L51.9944 1.03427L202.778 57.2572H202.77ZM49.7038 1.80996L188.35 52.6715L51.7965 1.75673L49.7038 1.80996Z" fill="#D2B48D"/>
</g>
<g id="Group_4">
<path id="Vector_5" d="M7.66617 74.3301L7.19435 73.7369C7.19435 73.7369 5.79412 71.9498 4.20364 71.8965C3.42742 71.8433 2.73492 72.2235 2.05763 73.0068L1.25098 72.4061L44.7495 0.4942L51.9257 0.380127L51.9409 1.39158L45.3507 1.49805L3.30566 70.9839C3.60245 70.9003 3.91446 70.8547 4.23408 70.8547C5.69519 70.9079 6.89756 71.9345 7.5368 72.5658L50.1678 2.77567L51.0277 3.33083L7.66617 74.3301Z" fill="#D2B48D"/>
<path id="Vector_6" d="M7.71184 74.9842L6.88236 73.9348C5.98439 72.8929 5.05597 72.2921 4.19605 72.2693C3.54159 72.2237 2.96324 72.5431 2.33922 73.2503L2.11092 73.5089L0.756348 72.505L44.5364 0.129283L52.2833 0L52.3138 1.75673L45.5638 1.8708L4.04385 70.4973C4.11234 70.4973 4.17322 70.4973 4.24171 70.4973C4.36347 70.4973 4.47761 70.5126 4.58415 70.5278C5.54301 70.6494 6.50947 71.1438 7.46833 72.0031L50.046 2.25865L51.53 3.21687L7.70423 74.9766L7.71184 74.9842ZM7.39223 73.3872H7.40745L7.63575 73.6838L50.5254 3.45262L50.2819 3.30052L7.61292 73.1667L7.27808 72.8397C6.23551 71.813 5.23861 71.273 4.21888 71.235C3.96775 71.235 3.68618 71.273 3.40461 71.3491L2.50664 71.5925L45.1452 1.13313L51.568 1.02666V0.752884L44.9702 0.859353L1.76086 72.3073L2.02721 72.505C2.72732 71.7902 3.45788 71.4708 4.24171 71.524C4.31781 71.524 4.40152 71.5316 4.47761 71.5468C5.42125 71.6685 6.4562 72.3149 7.39223 73.3872Z" fill="#D2B48D"/>
</g>
<path id="Vector_7" d="M142.172 129.907L3.59473 77.8209L3.99044 77.2885C4.2644 76.855 11.1971 67.501 16.4023 68.1626L16.5393 68.2007L154.31 119.404L153.891 119.868L153.298 120.013C145.284 121.747 142.857 129.511 142.826 129.587L142.164 129.899L142.172 129.907ZM5.22326 77.3341L142.065 128.781C142.72 127.085 145.307 121.519 151.517 119.435L16.2425 69.1893C12.2548 68.7178 6.76047 75.3873 5.22326 77.3265V77.3341Z" fill="#D2B48D"/>
</g>
</svg>
